<svg xmlns="http://www.w3.org/2000/svg" version="1.1" xmlns:xlink="http://www.w3.org/1999/xlink" width="800" height="800"><svg xmlns="http://www.w3.org/2000/svg" version="1.1" xmlns:xlink="http://www.w3.org/1999/xlink" width="800" height="800"><svg xmlns="http://www.w3.org/2000/svg" xmlns:xlink="http://www.w3.org/1999/xlink" width="800" height="800" viewBox="-105 -105 210 210">
  <defs>
    <radialGradient id="b" cx=".4" cy=".3" r=".8">
      <stop offset="0" stop-color="#fff"></stop>
      <stop offset=".4" stop-color="#fff"></stop>
      <stop offset=".8" stop-color="#EEE"></stop>
    </radialGradient>
    <radialGradient id="d" cx=".5" cy=".5" r=".5">
      <stop offset="0" stop-color="#fff" stop-opacity="0"></stop>
      <stop offset=".8" stop-color="#fff" stop-opacity="0"></stop>
      <stop offset=".99" stop-opacity=".3"></stop>
      <stop offset="1"></stop>
    </radialGradient>
    <clipPath id="a">
      <circle r="100" stroke-width="0"></circle>
    </clipPath>
    <g id="c" stroke-linejoin="round" clip-path="url(#a)">
      <path d="M6-32q20 4 40 13 11-16 18-28-14-21-27-29-20 1-36 8 3 17 5 36M-26-2q-19-6-36-9-12 16-14 33 7 18 26 32 18-7 33-15-6-24-9-41m-69 24q-7-10-7-30v88h17q-10-35-10-58m150 2Q41 41 24 52q4 13 7 27 24-1 37-12 10-17 12-32-15-7-25-11M0 120l-3-25q-22-2-39-13-8 2-18-1M-90-48q10-4 22-1 16-22 33-28 0-23-5-23h-60m200 45L87-37Q98-10 97 5l3 1"></path>
      <path fill="none" d="M6-32Q-18-12-26-2m72-17q8 24 9 43m9-71q13 3 23 10M37-76q2-14-1-24M1-68q-14-9-36-9m-27 66q-5-14-6-38m-8 71q-9 2-19 0m45 32q1 16 8 28m25-43q17 9 41 13m7 27Q20 92-3 95m71-28 12 13m0-45Q90 25 97 5"></path>
    </g>
  </defs>
  <circle r="100" fill="#fff"></circle>
  <circle r="100" fill="url(#b)"></circle>
  <use xlink:href="#c" stroke="#EEE" stroke-width="7"></use>
  <use xlink:href="#c" stroke="#DDD" stroke-width="4"></use>
  <use xlink:href="#c" stroke="#999" stroke-width="2"></use>
  <use xlink:href="#c" stroke="#000"></use>
  <circle r="100" fill="url(#d)"></circle>
</svg></svg><style>@media (prefers-color-scheme: light) { :root { filter: none; } }
@media (prefers-color-scheme: dark) { :root { filter: none; } }
</style></svg>