<svg xmlns="http://www.w3.org/2000/svg" width="64" height="64" viewBox="0 0 64 64">
  <defs>
    <filter id="s" x="-20%" y="-20%" width="140%" height="140%">
      <feDropShadow dx="0" dy="1" stdDeviation="1" flood-color="#000" flood-opacity="0.2"/>
    </filter>
  </defs>
  <!-- Soccer ball -->
  <circle cx="32" cy="32" r="28" fill="#fff" stroke="#111827" stroke-width="2" filter="url(#s)"/>
  <!-- Pentagon center -->
  <path d="M32 18 l8 6 -3 9 h-10 l-3 -9 z" fill="#111827"/>
  <!-- Surrounding patches (simplified) -->
  <path d="M32 18 l-8 6 -7 -3 5 -7 z" fill="#e5e7eb"/>
  <path d="M40 24 l7 -3 5 7 -8 3 z" fill="#e5e7eb"/>
  <path d="M27 33 h-10 l-5 7 9 2 z" fill="#e5e7eb"/>
  <path d="M37 33 h10 l6 7 -9 2 z" fill="#e5e7eb"/>
  <path d="M28 42 l4 10 4 -10 z" fill="#111827"/>
  <!-- Seams -->
  <path d="M24 24 L17 21 M40 24 L47 21 M22 42 L16 49 M42 42 L48 49" stroke="#111827" stroke-width="1.2" stroke-linecap="round" opacity="0.6"/>
</svg>

